<svg xmlns="http://www.w3.org/2000/svg" xmlns:xlink="http://www.w3.org/1999/xlink" width="28" height="28" viewBox="0 0 28 28">
  <defs>
    <style>
      .cls-1, .cls-2 {
        fill: none;
      }

      .cls-3 {
        opacity: 0.2;
      }

      .cls-4 {
        clip-path: url(#clip-path);
      }

      .cls-5, .cls-6 {
        stroke: none;
      }

      .cls-6 {
        fill: #191919;
      }
    </style>
    <clipPath id="clip-path">
      <rect id="사각형_27639" data-name="사각형 27639" class="cls-1" width="28" height="28"/>
    </clipPath>
  </defs>
  <g id="그룹_37058" data-name="그룹 37058" transform="translate(-664 2275)">
    <g id="패스_22" data-name="패스 22" class="cls-2" transform="translate(663.5 -2275.667)">
      <path class="cls-5" d="M23.291,15.27a5.827,5.827,0,1,0-8.791-7.6,5.687,5.687,0,0,0-.543-.635,5.827,5.827,0,0,0-8.249,8.231L14.458,24Z"/>
      <path class="cls-6" d="M 14.4645824432373 21.18166923522949 L 21.88095855712891 13.85125350952148 C 22.60215759277344 13.1304292678833 22.99925804138184 12.17253875732422 22.9991569519043 11.15366172790527 C 22.99906730651855 10.13361167907715 22.6008472442627 9.174752235412598 21.87704658508301 8.452892303466797 C 21.15423774719238 7.731202125549316 20.19196701049805 7.333752155303955 19.16748809814453 7.333752155303955 C 18.14230728149414 7.333752155303955 17.17909812927246 7.731612205505371 16.45352745056152 8.455792427062988 C 16.34358787536621 8.565252304077148 16.23121643066406 8.697781562805176 16.09989738464355 8.872861862182617 L 14.49559688568115 11.01187229156494 L 12.89683723449707 8.868721961975098 C 12.77206707000732 8.701461791992188 12.65710735321045 8.566091537475586 12.54342746734619 8.452892303466797 C 11.82061767578125 7.731202125549316 10.85822772979736 7.333752155303955 9.833527565002441 7.333752155303955 C 8.808287620544434 7.333752155303955 7.845287322998047 7.731512069702148 7.12110710144043 8.454591751098633 C 6.397847175598145 9.175902366638184 5.999467372894287 10.13468170166016 5.999377250671387 11.15431213378906 C 5.999277114868164 12.17367172241211 6.397127151489258 13.13204193115234 7.119707107543945 13.852952003479 L 14.4645824432373 21.18166923522949 M 14.45791721343994 24.00034141540527 L 5.707047462463379 15.26872158050537 C 3.430297374725342 12.99722194671631 3.429417371749878 9.311721801757812 5.708797454833984 7.038472175598145 C 7.984667301177979 4.766091823577881 11.68066692352295 4.765222549438477 13.95654773712158 7.037591934204102 C 14.15779685974121 7.237971782684326 14.33542728424072 7.45234203338623 14.49991703033447 7.672842025756836 C 14.66529750823975 7.45234203338623 14.84204769134521 7.237971782684326 15.04242706298828 7.038472175598145 C 17.31916999816895 4.766092300415039 21.01429748535156 4.765222549438477 23.2901668548584 7.037591934204102 C 25.56867790222168 9.309971809387207 25.56867790222168 12.99722194671631 23.29104804992676 15.26959228515625 L 14.45791721343994 24.00034141540527 Z"/>
    </g>
    <g id="그룹_35790" data-name="그룹 35790" class="cls-3" transform="translate(664 -2275)">
      <g id="그룹_35784" data-name="그룹 35784">
        <g id="그룹_35783" data-name="그룹 35783" class="cls-4">
          <rect id="사각형_27638" data-name="사각형 27638" class="cls-1" width="28" height="28"/>
        </g>
      </g>
    </g>
  </g>
</svg>
