<svg id="그룹_35851" data-name="그룹 35851" xmlns="http://www.w3.org/2000/svg" xmlns:xlink="http://www.w3.org/1999/xlink" width="32" height="32" viewBox="0 0 32 32">
  <defs>
    <style>
      .cls-1 {
        fill: none;
      }

      .cls-2 {
        clip-path: url(#clip-path);
      }

      .cls-3 {
        fill: #191919;
      }
    </style>
    <clipPath id="clip-path">
      <rect id="사각형_27751" data-name="사각형 27751" class="cls-1" width="32" height="32"/>
    </clipPath>
  </defs>
  <g id="그룹_35850" data-name="그룹 35850" class="cls-2" transform="translate(0 0)">
    <path id="패스_31" data-name="패스 31" class="cls-3" d="M27.613,17.76H22.147a4.388,4.388,0,0,0-4.388,4.387v5.465A4.387,4.387,0,0,0,22.147,32h5.465A4.387,4.387,0,0,0,32,27.613V22.147a4.388,4.388,0,0,0-4.387-4.387m-2.5,11.793a4.642,4.642,0,1,1,4.642-4.642,4.642,4.642,0,0,1-4.642,4.642m4.32-8.176a1.181,1.181,0,1,1,1.181-1.18,1.18,1.18,0,0,1-1.181,1.18" transform="translate(-8.879 -8.88)"/>
    <path id="패스_32" data-name="패스 32" class="cls-3" d="M16,0A16,16,0,1,0,32,16,16,16,0,0,0,16,0m8.812,19.382a5.429,5.429,0,0,1-5.43,5.429H12.619a5.429,5.429,0,0,1-5.43-5.429V12.619a5.43,5.43,0,0,1,5.43-5.431h6.763a5.43,5.43,0,0,1,5.43,5.431Z" transform="translate(0 0)"/>
    <path id="패스_33" data-name="패스 33" class="cls-3" d="M29.68,26.476a2.793,2.793,0,1,0,2.792,2.793,2.792,2.792,0,0,0-2.792-2.793" transform="translate(-13.443 -13.238)"/>
  </g>
</svg>
