<svg xmlns="http://www.w3.org/2000/svg" xmlns:xlink="http://www.w3.org/1999/xlink" width="32" height="32" viewBox="0 0 32 32">
  <defs>
    <style>
      .cls-1 {
        fill: none;
      }

      .cls-2 {
        clip-path: url(#clip-path);
      }

      .cls-3 {
        fill: #191919;
        fill-rule: evenodd;
      }
    </style>
    <clipPath id="clip-path">
      <rect id="사각형_27748" data-name="사각형 27748" class="cls-1" width="32" height="32"/>
    </clipPath>
  </defs>
  <g id="그룹_35845" data-name="그룹 35845" transform="translate(-0.047)">
    <g id="그룹_35844" data-name="그룹 35844" class="cls-2" transform="translate(0.047 0)">
      <path id="패스_28" data-name="패스 28" class="cls-3" d="M16,0a16,16,0,0,0-5.835,30.9c-.006-.024-.014-.05-.019-.072a6.551,6.551,0,0,1-.12-1.211,14.489,14.489,0,0,1,.42-4.338c.538-2.088.988-4.2,1.505-6.3a1.894,1.894,0,0,0-.061-1.076,5.186,5.186,0,0,1,.7-4.869,2.342,2.342,0,0,1,2.276-.859,1.805,1.805,0,0,1,1.574,1.461,4.166,4.166,0,0,1-.076,2.057c-.3,1.273-.789,2.5-1.047,3.783a3.961,3.961,0,0,0,.05,1.67c.552,2.049,3.292,1.622,4.6.637a6.358,6.358,0,0,0,1.94-2.668,8.719,8.719,0,0,0,.677-3.6,8.263,8.263,0,0,0-.467-2.837,6.274,6.274,0,0,0-4.9-3.739,7.4,7.4,0,0,0-6.462,1.947,6.777,6.777,0,0,0-.977,8.276.922.922,0,0,1,.132.858,10.842,10.842,0,0,1-.243,1.135c-.112.334-.212.721-.616.75a1.2,1.2,0,0,1-.786-.3,4.039,4.039,0,0,1-1.128-1.452c-.108-.23-.254-.437-.369-.664a8.414,8.414,0,0,1-.931-4.632,11.394,11.394,0,0,1,.353-1.977,9.5,9.5,0,0,1,4.516-5.627,10.588,10.588,0,0,1,1.938-.85,11.4,11.4,0,0,1,7.175.149A9.427,9.427,0,0,1,24.194,9.5a9.461,9.461,0,0,1,1.789,7.974A10.148,10.148,0,0,1,22.9,23.256a7.311,7.311,0,0,1-2.048,1.295,11.179,11.179,0,0,1-1.177.429,5.272,5.272,0,0,1-5.452-1.5c-.123.539-.505,1.9-.573,2.164-.2.75-.4,1.5-.653,2.229A14.112,14.112,0,0,1,11.4,31.091c-.04.058-.087.126-.139.2A16,16,0,1,0,16,0" transform="translate(-0.035 0)"/>
    </g>
  </g>
</svg>
