<svg xmlns="http://www.w3.org/2000/svg" xmlns:xlink="http://www.w3.org/1999/xlink" width="32" height="32" viewBox="0 0 32 32">
  <defs>
    <style>
      .cls-1 {
        fill: none;
      }

      .cls-2 {
        clip-path: url(#clip-path);
      }

      .cls-3 {
        fill: #191919;
      }
    </style>
    <clipPath id="clip-path">
      <rect id="사각형_27749" data-name="사각형 27749" class="cls-1" width="32" height="32"/>
    </clipPath>
  </defs>
  <g id="그룹_35847" data-name="그룹 35847" transform="translate(0.094)">
    <g id="그룹_35846" data-name="그룹 35846" class="cls-2" transform="translate(-0.094 0)">
      <path id="패스_29" data-name="패스 29" class="cls-3" d="M16,0A16,16,0,1,0,32,16,16,16,0,0,0,16,0m7.285,12.264c.009.161.011.323.011.486a10.687,10.687,0,0,1-16.454,9,7.717,7.717,0,0,0,.9.052A7.535,7.535,0,0,0,12.406,20.2,3.761,3.761,0,0,1,8.9,17.586a3.69,3.69,0,0,0,.706.069,3.777,3.777,0,0,0,.989-.133,3.76,3.76,0,0,1-3.014-3.685c0-.016,0-.031,0-.048a3.738,3.738,0,0,0,1.7.47A3.76,3.76,0,0,1,8.116,9.244a10.679,10.679,0,0,0,7.747,3.927,3.839,3.839,0,0,1-.1-.858,3.759,3.759,0,0,1,6.5-2.57,7.553,7.553,0,0,0,2.386-.913A3.784,3.784,0,0,1,23,10.91a7.532,7.532,0,0,0,2.157-.592,7.618,7.618,0,0,1-1.875,1.946" transform="translate(0.07 0)"/>
    </g>
  </g>
</svg>
